<?xml version="1.0" encoding="UTF-8" standalone="no"?>
<svg
   width="483.07898"
   height="427.53717"
   overflow="hidden"
   version="1.1"
   id="svg38390"
   sodipodi:docname="klantinteracties-submodel-opvolging-van-klantcontact.svg"
   inkscape:version="1.2.2 (732a01da63, 2022-12-09)"
   xmlns:inkscape="http://www.inkscape.org/namespaces/inkscape"
   xmlns:sodipodi="http://sodipodi.sourceforge.net/DTD/sodipodi-0.dtd"
   xmlns="http://www.w3.org/2000/svg"
   xmlns:svg="http://www.w3.org/2000/svg">
  <sodipodi:namedview
     id="namedview38392"
     pagecolor="#ffffff"
     bordercolor="#666666"
     borderopacity="1.0"
     inkscape:showpageshadow="2"
     inkscape:pageopacity="0.0"
     inkscape:pagecheckerboard="0"
     inkscape:deskcolor="#d1d1d1"
     showgrid="false"
     inkscape:zoom="1.0171875"
     inkscape:cx="323.93241"
     inkscape:cy="226.11367"
     inkscape:window-width="2560"
     inkscape:window-height="1381"
     inkscape:window-x="1912"
     inkscape:window-y="-8"
     inkscape:window-maximized="1"
     inkscape:current-layer="g38388" />
  <defs
     id="defs38340">
    <clipPath
       id="clip0">
      <rect
         x="0"
         y="0"
         width="1280"
         height="720"
         id="rect37683" />
    </clipPath>
    <linearGradient
       x1="317.53699"
       y1="348.617"
       x2="680.32599"
       y2="348.617"
       gradientUnits="userSpaceOnUse"
       spreadMethod="reflect"
       id="fill1">
      <stop
         offset="0"
         stop-color="#92CDDC"
         id="stop37686" />
      <stop
         offset="0.0188679"
         stop-color="#93CDDC"
         id="stop37688" />
      <stop
         offset="0.0377358"
         stop-color="#95CEDD"
         id="stop37690" />
      <stop
         offset="0.0566038"
         stop-color="#97CFDD"
         id="stop37692" />
      <stop
         offset="0.0754717"
         stop-color="#99D0DE"
         id="stop37694" />
      <stop
         offset="0.0943396"
         stop-color="#9BD1DF"
         id="stop37696" />
      <stop
         offset="0.113208"
         stop-color="#9CD2DF"
         id="stop37698" />
      <stop
         offset="0.132075"
         stop-color="#9ED2E0"
         id="stop37700" />
      <stop
         offset="0.150943"
         stop-color="#A0D3E0"
         id="stop37702" />
      <stop
         offset="0.169811"
         stop-color="#A1D4E1"
         id="stop37704" />
      <stop
         offset="0.188679"
         stop-color="#A3D5E1"
         id="stop37706" />
      <stop
         offset="0.207547"
         stop-color="#A5D5E2"
         id="stop37708" />
      <stop
         offset="0.226415"
         stop-color="#A6D6E2"
         id="stop37710" />
      <stop
         offset="0.245283"
         stop-color="#A8D7E3"
         id="stop37712" />
      <stop
         offset="0.264151"
         stop-color="#A9D7E3"
         id="stop37714" />
      <stop
         offset="0.283019"
         stop-color="#ABD8E4"
         id="stop37716" />
      <stop
         offset="0.301887"
         stop-color="#ACD9E4"
         id="stop37718" />
      <stop
         offset="0.320755"
         stop-color="#ADD9E5"
         id="stop37720" />
      <stop
         offset="0.339623"
         stop-color="#AFDAE5"
         id="stop37722" />
      <stop
         offset="0.358491"
         stop-color="#B0DBE6"
         id="stop37724" />
      <stop
         offset="0.377358"
         stop-color="#B1DBE6"
         id="stop37726" />
      <stop
         offset="0.396226"
         stop-color="#B3DCE7"
         id="stop37728" />
      <stop
         offset="0.415094"
         stop-color="#B4DCE7"
         id="stop37730" />
      <stop
         offset="0.433962"
         stop-color="#B5DDE7"
         id="stop37732" />
      <stop
         offset="0.45283"
         stop-color="#B6DDE8"
         id="stop37734" />
      <stop
         offset="0.471698"
         stop-color="#B7DEE8"
         id="stop37736" />
      <stop
         offset="0.490566"
         stop-color="#B8DEE8"
         id="stop37738" />
      <stop
         offset="0.509434"
         stop-color="#B9DFE9"
         id="stop37740" />
      <stop
         offset="0.528302"
         stop-color="#BADFE9"
         id="stop37742" />
      <stop
         offset="0.54717"
         stop-color="#BBE0E9"
         id="stop37744" />
      <stop
         offset="0.566038"
         stop-color="#BCE0EA"
         id="stop37746" />
      <stop
         offset="0.584906"
         stop-color="#BDE1EA"
         id="stop37748" />
      <stop
         offset="0.603774"
         stop-color="#BEE1EA"
         id="stop37750" />
      <stop
         offset="0.622642"
         stop-color="#BFE1EB"
         id="stop37752" />
      <stop
         offset="0.641509"
         stop-color="#C0E2EB"
         id="stop37754" />
      <stop
         offset="0.660377"
         stop-color="#C0E2EB"
         id="stop37756" />
      <stop
         offset="0.679245"
         stop-color="#C1E3EB"
         id="stop37758" />
      <stop
         offset="0.698113"
         stop-color="#C2E3EC"
         id="stop37760" />
      <stop
         offset="0.716981"
         stop-color="#C2E3EC"
         id="stop37762" />
      <stop
         offset="0.735849"
         stop-color="#C3E3EC"
         id="stop37764" />
      <stop
         offset="0.754717"
         stop-color="#C4E4EC"
         id="stop37766" />
      <stop
         offset="0.773585"
         stop-color="#C4E4EC"
         id="stop37768" />
      <stop
         offset="0.792453"
         stop-color="#C5E4ED"
         id="stop37770" />
      <stop
         offset="0.811321"
         stop-color="#C5E4ED"
         id="stop37772" />
      <stop
         offset="0.830189"
         stop-color="#C6E5ED"
         id="stop37774" />
      <stop
         offset="0.849057"
         stop-color="#C6E5ED"
         id="stop37776" />
      <stop
         offset="0.867925"
         stop-color="#C6E5ED"
         id="stop37778" />
      <stop
         offset="0.886792"
         stop-color="#C7E5ED"
         id="stop37780" />
      <stop
         offset="0.90566"
         stop-color="#C7E5ED"
         id="stop37782" />
      <stop
         offset="0.924528"
         stop-color="#C7E5ED"
         id="stop37784" />
      <stop
         offset="0.943396"
         stop-color="#C7E5ED"
         id="stop37786" />
      <stop
         offset="0.962264"
         stop-color="#C7E5ED"
         id="stop37788" />
      <stop
         offset="0.981132"
         stop-color="#C7E5ED"
         id="stop37790" />
      <stop
         offset="1"
         stop-color="#C8E6EE"
         id="stop37792" />
    </linearGradient>
    <linearGradient
       x1="317.53699"
       y1="348.617"
       x2="680.32599"
       y2="348.617"
       gradientUnits="userSpaceOnUse"
       spreadMethod="reflect"
       id="fill2">
      <stop
         offset="0"
         stop-color="#92CDDC"
         id="stop37795" />
      <stop
         offset="0.0188679"
         stop-color="#93CDDC"
         id="stop37797" />
      <stop
         offset="0.0377358"
         stop-color="#95CEDD"
         id="stop37799" />
      <stop
         offset="0.0566038"
         stop-color="#97CFDD"
         id="stop37801" />
      <stop
         offset="0.0754717"
         stop-color="#99D0DE"
         id="stop37803" />
      <stop
         offset="0.0943396"
         stop-color="#9BD1DF"
         id="stop37805" />
      <stop
         offset="0.113208"
         stop-color="#9CD2DF"
         id="stop37807" />
      <stop
         offset="0.132075"
         stop-color="#9ED2E0"
         id="stop37809" />
      <stop
         offset="0.150943"
         stop-color="#A0D3E0"
         id="stop37811" />
      <stop
         offset="0.169811"
         stop-color="#A1D4E1"
         id="stop37813" />
      <stop
         offset="0.188679"
         stop-color="#A3D5E1"
         id="stop37815" />
      <stop
         offset="0.207547"
         stop-color="#A5D5E2"
         id="stop37817" />
      <stop
         offset="0.226415"
         stop-color="#A6D6E2"
         id="stop37819" />
      <stop
         offset="0.245283"
         stop-color="#A8D7E3"
         id="stop37821" />
      <stop
         offset="0.264151"
         stop-color="#A9D7E3"
         id="stop37823" />
      <stop
         offset="0.283019"
         stop-color="#ABD8E4"
         id="stop37825" />
      <stop
         offset="0.301887"
         stop-color="#ACD9E4"
         id="stop37827" />
      <stop
         offset="0.320755"
         stop-color="#ADD9E5"
         id="stop37829" />
      <stop
         offset="0.339623"
         stop-color="#AFDAE5"
         id="stop37831" />
      <stop
         offset="0.358491"
         stop-color="#B0DBE6"
         id="stop37833" />
      <stop
         offset="0.377358"
         stop-color="#B1DBE6"
         id="stop37835" />
      <stop
         offset="0.396226"
         stop-color="#B3DCE7"
         id="stop37837" />
      <stop
         offset="0.415094"
         stop-color="#B4DCE7"
         id="stop37839" />
      <stop
         offset="0.433962"
         stop-color="#B5DDE7"
         id="stop37841" />
      <stop
         offset="0.45283"
         stop-color="#B6DDE8"
         id="stop37843" />
      <stop
         offset="0.471698"
         stop-color="#B7DEE8"
         id="stop37845" />
      <stop
         offset="0.490566"
         stop-color="#B8DEE8"
         id="stop37847" />
      <stop
         offset="0.509434"
         stop-color="#B9DFE9"
         id="stop37849" />
      <stop
         offset="0.528302"
         stop-color="#BADFE9"
         id="stop37851" />
      <stop
         offset="0.54717"
         stop-color="#BBE0E9"
         id="stop37853" />
      <stop
         offset="0.566038"
         stop-color="#BCE0EA"
         id="stop37855" />
      <stop
         offset="0.584906"
         stop-color="#BDE1EA"
         id="stop37857" />
      <stop
         offset="0.603774"
         stop-color="#BEE1EA"
         id="stop37859" />
      <stop
         offset="0.622642"
         stop-color="#BFE1EB"
         id="stop37861" />
      <stop
         offset="0.641509"
         stop-color="#C0E2EB"
         id="stop37863" />
      <stop
         offset="0.660377"
         stop-color="#C0E2EB"
         id="stop37865" />
      <stop
         offset="0.679245"
         stop-color="#C1E3EB"
         id="stop37867" />
      <stop
         offset="0.698113"
         stop-color="#C2E3EC"
         id="stop37869" />
      <stop
         offset="0.716981"
         stop-color="#C2E3EC"
         id="stop37871" />
      <stop
         offset="0.735849"
         stop-color="#C3E3EC"
         id="stop37873" />
      <stop
         offset="0.754717"
         stop-color="#C4E4EC"
         id="stop37875" />
      <stop
         offset="0.773585"
         stop-color="#C4E4EC"
         id="stop37877" />
      <stop
         offset="0.792453"
         stop-color="#C5E4ED"
         id="stop37879" />
      <stop
         offset="0.811321"
         stop-color="#C5E4ED"
         id="stop37881" />
      <stop
         offset="0.830189"
         stop-color="#C6E5ED"
         id="stop37883" />
      <stop
         offset="0.849057"
         stop-color="#C6E5ED"
         id="stop37885" />
      <stop
         offset="0.867925"
         stop-color="#C6E5ED"
         id="stop37887" />
      <stop
         offset="0.886792"
         stop-color="#C7E5ED"
         id="stop37889" />
      <stop
         offset="0.90566"
         stop-color="#C7E5ED"
         id="stop37891" />
      <stop
         offset="0.924528"
         stop-color="#C7E5ED"
         id="stop37893" />
      <stop
         offset="0.943396"
         stop-color="#C7E5ED"
         id="stop37895" />
      <stop
         offset="0.962264"
         stop-color="#C7E5ED"
         id="stop37897" />
      <stop
         offset="0.981132"
         stop-color="#C7E5ED"
         id="stop37899" />
      <stop
         offset="1"
         stop-color="#C8E6EE"
         id="stop37901" />
    </linearGradient>
    <linearGradient
       x1="518.07098"
       y1="511.117"
       x2="679.86798"
       y2="511.117"
       gradientUnits="userSpaceOnUse"
       spreadMethod="reflect"
       id="fill3">
      <stop
         offset="0"
         stop-color="#92CDDC"
         id="stop37904" />
      <stop
         offset="0.0188679"
         stop-color="#93CDDC"
         id="stop37906" />
      <stop
         offset="0.0377358"
         stop-color="#95CEDD"
         id="stop37908" />
      <stop
         offset="0.0566038"
         stop-color="#97CFDD"
         id="stop37910" />
      <stop
         offset="0.0754717"
         stop-color="#99D0DE"
         id="stop37912" />
      <stop
         offset="0.0943396"
         stop-color="#9BD1DF"
         id="stop37914" />
      <stop
         offset="0.113208"
         stop-color="#9CD2DF"
         id="stop37916" />
      <stop
         offset="0.132075"
         stop-color="#9ED2E0"
         id="stop37918" />
      <stop
         offset="0.150943"
         stop-color="#A0D3E0"
         id="stop37920" />
      <stop
         offset="0.169811"
         stop-color="#A1D4E1"
         id="stop37922" />
      <stop
         offset="0.188679"
         stop-color="#A3D5E1"
         id="stop37924" />
      <stop
         offset="0.207547"
         stop-color="#A5D5E2"
         id="stop37926" />
      <stop
         offset="0.226415"
         stop-color="#A6D6E2"
         id="stop37928" />
      <stop
         offset="0.245283"
         stop-color="#A8D7E3"
         id="stop37930" />
      <stop
         offset="0.264151"
         stop-color="#A9D7E3"
         id="stop37932" />
      <stop
         offset="0.283019"
         stop-color="#ABD8E4"
         id="stop37934" />
      <stop
         offset="0.301887"
         stop-color="#ACD9E4"
         id="stop37936" />
      <stop
         offset="0.320755"
         stop-color="#ADD9E5"
         id="stop37938" />
      <stop
         offset="0.339623"
         stop-color="#AFDAE5"
         id="stop37940" />
      <stop
         offset="0.358491"
         stop-color="#B0DBE6"
         id="stop37942" />
      <stop
         offset="0.377358"
         stop-color="#B1DBE6"
         id="stop37944" />
      <stop
         offset="0.396226"
         stop-color="#B3DCE7"
         id="stop37946" />
      <stop
         offset="0.415094"
         stop-color="#B4DCE7"
         id="stop37948" />
      <stop
         offset="0.433962"
         stop-color="#B5DDE7"
         id="stop37950" />
      <stop
         offset="0.45283"
         stop-color="#B6DDE8"
         id="stop37952" />
      <stop
         offset="0.471698"
         stop-color="#B7DEE8"
         id="stop37954" />
      <stop
         offset="0.490566"
         stop-color="#B8DEE8"
         id="stop37956" />
      <stop
         offset="0.509434"
         stop-color="#B9DFE9"
         id="stop37958" />
      <stop
         offset="0.528302"
         stop-color="#BADFE9"
         id="stop37960" />
      <stop
         offset="0.54717"
         stop-color="#BBE0E9"
         id="stop37962" />
      <stop
         offset="0.566038"
         stop-color="#BCE0EA"
         id="stop37964" />
      <stop
         offset="0.584906"
         stop-color="#BDE1EA"
         id="stop37966" />
      <stop
         offset="0.603774"
         stop-color="#BEE1EA"
         id="stop37968" />
      <stop
         offset="0.622642"
         stop-color="#BFE1EB"
         id="stop37970" />
      <stop
         offset="0.641509"
         stop-color="#C0E2EB"
         id="stop37972" />
      <stop
         offset="0.660377"
         stop-color="#C0E2EB"
         id="stop37974" />
      <stop
         offset="0.679245"
         stop-color="#C1E3EB"
         id="stop37976" />
      <stop
         offset="0.698113"
         stop-color="#C2E3EC"
         id="stop37978" />
      <stop
         offset="0.716981"
         stop-color="#C2E3EC"
         id="stop37980" />
      <stop
         offset="0.735849"
         stop-color="#C3E3EC"
         id="stop37982" />
      <stop
         offset="0.754717"
         stop-color="#C4E4EC"
         id="stop37984" />
      <stop
         offset="0.773585"
         stop-color="#C4E4EC"
         id="stop37986" />
      <stop
         offset="0.792453"
         stop-color="#C5E4ED"
         id="stop37988" />
      <stop
         offset="0.811321"
         stop-color="#C5E4ED"
         id="stop37990" />
      <stop
         offset="0.830189"
         stop-color="#C6E5ED"
         id="stop37992" />
      <stop
         offset="0.849057"
         stop-color="#C6E5ED"
         id="stop37994" />
      <stop
         offset="0.867925"
         stop-color="#C6E5ED"
         id="stop37996" />
      <stop
         offset="0.886792"
         stop-color="#C7E5ED"
         id="stop37998" />
      <stop
         offset="0.90566"
         stop-color="#C7E5ED"
         id="stop38000" />
      <stop
         offset="0.924528"
         stop-color="#C7E5ED"
         id="stop38002" />
      <stop
         offset="0.943396"
         stop-color="#C7E5ED"
         id="stop38004" />
      <stop
         offset="0.962264"
         stop-color="#C7E5ED"
         id="stop38006" />
      <stop
         offset="0.981132"
         stop-color="#C7E5ED"
         id="stop38008" />
      <stop
         offset="1"
         stop-color="#C8E6EE"
         id="stop38010" />
    </linearGradient>
    <linearGradient
       x1="518.07098"
       y1="511.117"
       x2="679.86798"
       y2="511.117"
       gradientUnits="userSpaceOnUse"
       spreadMethod="reflect"
       id="fill4">
      <stop
         offset="0"
         stop-color="#92CDDC"
         id="stop38013" />
      <stop
         offset="0.0188679"
         stop-color="#93CDDC"
         id="stop38015" />
      <stop
         offset="0.0377358"
         stop-color="#95CEDD"
         id="stop38017" />
      <stop
         offset="0.0566038"
         stop-color="#97CFDD"
         id="stop38019" />
      <stop
         offset="0.0754717"
         stop-color="#99D0DE"
         id="stop38021" />
      <stop
         offset="0.0943396"
         stop-color="#9BD1DF"
         id="stop38023" />
      <stop
         offset="0.113208"
         stop-color="#9CD2DF"
         id="stop38025" />
      <stop
         offset="0.132075"
         stop-color="#9ED2E0"
         id="stop38027" />
      <stop
         offset="0.150943"
         stop-color="#A0D3E0"
         id="stop38029" />
      <stop
         offset="0.169811"
         stop-color="#A1D4E1"
         id="stop38031" />
      <stop
         offset="0.188679"
         stop-color="#A3D5E1"
         id="stop38033" />
      <stop
         offset="0.207547"
         stop-color="#A5D5E2"
         id="stop38035" />
      <stop
         offset="0.226415"
         stop-color="#A6D6E2"
         id="stop38037" />
      <stop
         offset="0.245283"
         stop-color="#A8D7E3"
         id="stop38039" />
      <stop
         offset="0.264151"
         stop-color="#A9D7E3"
         id="stop38041" />
      <stop
         offset="0.283019"
         stop-color="#ABD8E4"
         id="stop38043" />
      <stop
         offset="0.301887"
         stop-color="#ACD9E4"
         id="stop38045" />
      <stop
         offset="0.320755"
         stop-color="#ADD9E5"
         id="stop38047" />
      <stop
         offset="0.339623"
         stop-color="#AFDAE5"
         id="stop38049" />
      <stop
         offset="0.358491"
         stop-color="#B0DBE6"
         id="stop38051" />
      <stop
         offset="0.377358"
         stop-color="#B1DBE6"
         id="stop38053" />
      <stop
         offset="0.396226"
         stop-color="#B3DCE7"
         id="stop38055" />
      <stop
         offset="0.415094"
         stop-color="#B4DCE7"
         id="stop38057" />
      <stop
         offset="0.433962"
         stop-color="#B5DDE7"
         id="stop38059" />
      <stop
         offset="0.45283"
         stop-color="#B6DDE8"
         id="stop38061" />
      <stop
         offset="0.471698"
         stop-color="#B7DEE8"
         id="stop38063" />
      <stop
         offset="0.490566"
         stop-color="#B8DEE8"
         id="stop38065" />
      <stop
         offset="0.509434"
         stop-color="#B9DFE9"
         id="stop38067" />
      <stop
         offset="0.528302"
         stop-color="#BADFE9"
         id="stop38069" />
      <stop
         offset="0.54717"
         stop-color="#BBE0E9"
         id="stop38071" />
      <stop
         offset="0.566038"
         stop-color="#BCE0EA"
         id="stop38073" />
      <stop
         offset="0.584906"
         stop-color="#BDE1EA"
         id="stop38075" />
      <stop
         offset="0.603774"
         stop-color="#BEE1EA"
         id="stop38077" />
      <stop
         offset="0.622642"
         stop-color="#BFE1EB"
         id="stop38079" />
      <stop
         offset="0.641509"
         stop-color="#C0E2EB"
         id="stop38081" />
      <stop
         offset="0.660377"
         stop-color="#C0E2EB"
         id="stop38083" />
      <stop
         offset="0.679245"
         stop-color="#C1E3EB"
         id="stop38085" />
      <stop
         offset="0.698113"
         stop-color="#C2E3EC"
         id="stop38087" />
      <stop
         offset="0.716981"
         stop-color="#C2E3EC"
         id="stop38089" />
      <stop
         offset="0.735849"
         stop-color="#C3E3EC"
         id="stop38091" />
      <stop
         offset="0.754717"
         stop-color="#C4E4EC"
         id="stop38093" />
      <stop
         offset="0.773585"
         stop-color="#C4E4EC"
         id="stop38095" />
      <stop
         offset="0.792453"
         stop-color="#C5E4ED"
         id="stop38097" />
      <stop
         offset="0.811321"
         stop-color="#C5E4ED"
         id="stop38099" />
      <stop
         offset="0.830189"
         stop-color="#C6E5ED"
         id="stop38101" />
      <stop
         offset="0.849057"
         stop-color="#C6E5ED"
         id="stop38103" />
      <stop
         offset="0.867925"
         stop-color="#C6E5ED"
         id="stop38105" />
      <stop
         offset="0.886792"
         stop-color="#C7E5ED"
         id="stop38107" />
      <stop
         offset="0.90566"
         stop-color="#C7E5ED"
         id="stop38109" />
      <stop
         offset="0.924528"
         stop-color="#C7E5ED"
         id="stop38111" />
      <stop
         offset="0.943396"
         stop-color="#C7E5ED"
         id="stop38113" />
      <stop
         offset="0.962264"
         stop-color="#C7E5ED"
         id="stop38115" />
      <stop
         offset="0.981132"
         stop-color="#C7E5ED"
         id="stop38117" />
      <stop
         offset="1"
         stop-color="#C8E6EE"
         id="stop38119" />
    </linearGradient>
    <linearGradient
       x1="418.07101"
       y1="185.617"
       x2="579.86798"
       y2="185.617"
       gradientUnits="userSpaceOnUse"
       spreadMethod="reflect"
       id="fill5">
      <stop
         offset="0"
         stop-color="#92CDDC"
         id="stop38122" />
      <stop
         offset="0.0188679"
         stop-color="#93CDDC"
         id="stop38124" />
      <stop
         offset="0.0377358"
         stop-color="#95CEDD"
         id="stop38126" />
      <stop
         offset="0.0566038"
         stop-color="#97CFDD"
         id="stop38128" />
      <stop
         offset="0.0754717"
         stop-color="#99D0DE"
         id="stop38130" />
      <stop
         offset="0.0943396"
         stop-color="#9BD1DF"
         id="stop38132" />
      <stop
         offset="0.113208"
         stop-color="#9CD2DF"
         id="stop38134" />
      <stop
         offset="0.132075"
         stop-color="#9ED2E0"
         id="stop38136" />
      <stop
         offset="0.150943"
         stop-color="#A0D3E0"
         id="stop38138" />
      <stop
         offset="0.169811"
         stop-color="#A1D4E1"
         id="stop38140" />
      <stop
         offset="0.188679"
         stop-color="#A3D5E1"
         id="stop38142" />
      <stop
         offset="0.207547"
         stop-color="#A5D5E2"
         id="stop38144" />
      <stop
         offset="0.226415"
         stop-color="#A6D6E2"
         id="stop38146" />
      <stop
         offset="0.245283"
         stop-color="#A8D7E3"
         id="stop38148" />
      <stop
         offset="0.264151"
         stop-color="#A9D7E3"
         id="stop38150" />
      <stop
         offset="0.283019"
         stop-color="#ABD8E4"
         id="stop38152" />
      <stop
         offset="0.301887"
         stop-color="#ACD9E4"
         id="stop38154" />
      <stop
         offset="0.320755"
         stop-color="#ADD9E5"
         id="stop38156" />
      <stop
         offset="0.339623"
         stop-color="#AFDAE5"
         id="stop38158" />
      <stop
         offset="0.358491"
         stop-color="#B0DBE6"
         id="stop38160" />
      <stop
         offset="0.377358"
         stop-color="#B1DBE6"
         id="stop38162" />
      <stop
         offset="0.396226"
         stop-color="#B3DCE7"
         id="stop38164" />
      <stop
         offset="0.415094"
         stop-color="#B4DCE7"
         id="stop38166" />
      <stop
         offset="0.433962"
         stop-color="#B5DDE7"
         id="stop38168" />
      <stop
         offset="0.45283"
         stop-color="#B6DDE8"
         id="stop38170" />
      <stop
         offset="0.471698"
         stop-color="#B7DEE8"
         id="stop38172" />
      <stop
         offset="0.490566"
         stop-color="#B8DEE8"
         id="stop38174" />
      <stop
         offset="0.509434"
         stop-color="#B9DFE9"
         id="stop38176" />
      <stop
         offset="0.528302"
         stop-color="#BADFE9"
         id="stop38178" />
      <stop
         offset="0.54717"
         stop-color="#BBE0E9"
         id="stop38180" />
      <stop
         offset="0.566038"
         stop-color="#BCE0EA"
         id="stop38182" />
      <stop
         offset="0.584906"
         stop-color="#BDE1EA"
         id="stop38184" />
      <stop
         offset="0.603774"
         stop-color="#BEE1EA"
         id="stop38186" />
      <stop
         offset="0.622642"
         stop-color="#BFE1EB"
         id="stop38188" />
      <stop
         offset="0.641509"
         stop-color="#C0E2EB"
         id="stop38190" />
      <stop
         offset="0.660377"
         stop-color="#C0E2EB"
         id="stop38192" />
      <stop
         offset="0.679245"
         stop-color="#C1E3EB"
         id="stop38194" />
      <stop
         offset="0.698113"
         stop-color="#C2E3EC"
         id="stop38196" />
      <stop
         offset="0.716981"
         stop-color="#C2E3EC"
         id="stop38198" />
      <stop
         offset="0.735849"
         stop-color="#C3E3EC"
         id="stop38200" />
      <stop
         offset="0.754717"
         stop-color="#C4E4EC"
         id="stop38202" />
      <stop
         offset="0.773585"
         stop-color="#C4E4EC"
         id="stop38204" />
      <stop
         offset="0.792453"
         stop-color="#C5E4ED"
         id="stop38206" />
      <stop
         offset="0.811321"
         stop-color="#C5E4ED"
         id="stop38208" />
      <stop
         offset="0.830189"
         stop-color="#C6E5ED"
         id="stop38210" />
      <stop
         offset="0.849057"
         stop-color="#C6E5ED"
         id="stop38212" />
      <stop
         offset="0.867925"
         stop-color="#C6E5ED"
         id="stop38214" />
      <stop
         offset="0.886792"
         stop-color="#C7E5ED"
         id="stop38216" />
      <stop
         offset="0.90566"
         stop-color="#C7E5ED"
         id="stop38218" />
      <stop
         offset="0.924528"
         stop-color="#C7E5ED"
         id="stop38220" />
      <stop
         offset="0.943396"
         stop-color="#C7E5ED"
         id="stop38222" />
      <stop
         offset="0.962264"
         stop-color="#C7E5ED"
         id="stop38224" />
      <stop
         offset="0.981132"
         stop-color="#C7E5ED"
         id="stop38226" />
      <stop
         offset="1"
         stop-color="#C8E6EE"
         id="stop38228" />
    </linearGradient>
    <linearGradient
       x1="418.07101"
       y1="185.617"
       x2="579.86798"
       y2="185.617"
       gradientUnits="userSpaceOnUse"
       spreadMethod="reflect"
       id="fill6">
      <stop
         offset="0"
         stop-color="#92CDDC"
         id="stop38231" />
      <stop
         offset="0.0188679"
         stop-color="#93CDDC"
         id="stop38233" />
      <stop
         offset="0.0377358"
         stop-color="#95CEDD"
         id="stop38235" />
      <stop
         offset="0.0566038"
         stop-color="#97CFDD"
         id="stop38237" />
      <stop
         offset="0.0754717"
         stop-color="#99D0DE"
         id="stop38239" />
      <stop
         offset="0.0943396"
         stop-color="#9BD1DF"
         id="stop38241" />
      <stop
         offset="0.113208"
         stop-color="#9CD2DF"
         id="stop38243" />
      <stop
         offset="0.132075"
         stop-color="#9ED2E0"
         id="stop38245" />
      <stop
         offset="0.150943"
         stop-color="#A0D3E0"
         id="stop38247" />
      <stop
         offset="0.169811"
         stop-color="#A1D4E1"
         id="stop38249" />
      <stop
         offset="0.188679"
         stop-color="#A3D5E1"
         id="stop38251" />
      <stop
         offset="0.207547"
         stop-color="#A5D5E2"
         id="stop38253" />
      <stop
         offset="0.226415"
         stop-color="#A6D6E2"
         id="stop38255" />
      <stop
         offset="0.245283"
         stop-color="#A8D7E3"
         id="stop38257" />
      <stop
         offset="0.264151"
         stop-color="#A9D7E3"
         id="stop38259" />
      <stop
         offset="0.283019"
         stop-color="#ABD8E4"
         id="stop38261" />
      <stop
         offset="0.301887"
         stop-color="#ACD9E4"
         id="stop38263" />
      <stop
         offset="0.320755"
         stop-color="#ADD9E5"
         id="stop38265" />
      <stop
         offset="0.339623"
         stop-color="#AFDAE5"
         id="stop38267" />
      <stop
         offset="0.358491"
         stop-color="#B0DBE6"
         id="stop38269" />
      <stop
         offset="0.377358"
         stop-color="#B1DBE6"
         id="stop38271" />
      <stop
         offset="0.396226"
         stop-color="#B3DCE7"
         id="stop38273" />
      <stop
         offset="0.415094"
         stop-color="#B4DCE7"
         id="stop38275" />
      <stop
         offset="0.433962"
         stop-color="#B5DDE7"
         id="stop38277" />
      <stop
         offset="0.45283"
         stop-color="#B6DDE8"
         id="stop38279" />
      <stop
         offset="0.471698"
         stop-color="#B7DEE8"
         id="stop38281" />
      <stop
         offset="0.490566"
         stop-color="#B8DEE8"
         id="stop38283" />
      <stop
         offset="0.509434"
         stop-color="#B9DFE9"
         id="stop38285" />
      <stop
         offset="0.528302"
         stop-color="#BADFE9"
         id="stop38287" />
      <stop
         offset="0.54717"
         stop-color="#BBE0E9"
         id="stop38289" />
      <stop
         offset="0.566038"
         stop-color="#BCE0EA"
         id="stop38291" />
      <stop
         offset="0.584906"
         stop-color="#BDE1EA"
         id="stop38293" />
      <stop
         offset="0.603774"
         stop-color="#BEE1EA"
         id="stop38295" />
      <stop
         offset="0.622642"
         stop-color="#BFE1EB"
         id="stop38297" />
      <stop
         offset="0.641509"
         stop-color="#C0E2EB"
         id="stop38299" />
      <stop
         offset="0.660377"
         stop-color="#C0E2EB"
         id="stop38301" />
      <stop
         offset="0.679245"
         stop-color="#C1E3EB"
         id="stop38303" />
      <stop
         offset="0.698113"
         stop-color="#C2E3EC"
         id="stop38305" />
      <stop
         offset="0.716981"
         stop-color="#C2E3EC"
         id="stop38307" />
      <stop
         offset="0.735849"
         stop-color="#C3E3EC"
         id="stop38309" />
      <stop
         offset="0.754717"
         stop-color="#C4E4EC"
         id="stop38311" />
      <stop
         offset="0.773585"
         stop-color="#C4E4EC"
         id="stop38313" />
      <stop
         offset="0.792453"
         stop-color="#C5E4ED"
         id="stop38315" />
      <stop
         offset="0.811321"
         stop-color="#C5E4ED"
         id="stop38317" />
      <stop
         offset="0.830189"
         stop-color="#C6E5ED"
         id="stop38319" />
      <stop
         offset="0.849057"
         stop-color="#C6E5ED"
         id="stop38321" />
      <stop
         offset="0.867925"
         stop-color="#C6E5ED"
         id="stop38323" />
      <stop
         offset="0.886792"
         stop-color="#C7E5ED"
         id="stop38325" />
      <stop
         offset="0.90566"
         stop-color="#C7E5ED"
         id="stop38327" />
      <stop
         offset="0.924528"
         stop-color="#C7E5ED"
         id="stop38329" />
      <stop
         offset="0.943396"
         stop-color="#C7E5ED"
         id="stop38331" />
      <stop
         offset="0.962264"
         stop-color="#C7E5ED"
         id="stop38333" />
      <stop
         offset="0.981132"
         stop-color="#C7E5ED"
         id="stop38335" />
      <stop
         offset="1"
         stop-color="#C8E6EE"
         id="stop38337" />
    </linearGradient>
  </defs>
  <g
     clip-path="url(#clip0)"
     id="g38388"
     transform="translate(-316.90728,-134.04383)">
    <path
       d="m 318.5,305.5 c 9.633,-0.518 19.431,0.448 36.501,0 17.07,-0.447 15.62,0.407 29.281,0 13.661,-0.407 36.374,-0.081 47.331,0 10.958,0.081 24.374,-0.355 36.502,0 12.127,0.355 24.747,-0.312 36.501,0 11.753,0.312 24.341,0.448 47.331,0 22.989,-0.448 22.266,-0.172 32.891,0 10.624,0.172 37.596,0.056 47.331,0 9.735,-0.056 36.422,-0.218 47.331,0 0.134,7.172 1.789,11.092 0,18.6 -1.789,7.508 1.752,10.893 0,18.6 -1.752,7.707 0.205,11.46 0,19.53 -0.205,8.07 0.304,8.382 0,15.81 -0.304,7.428 -1.385,14.978 0,20.46 -12.995,-0.138 -23.273,0.685 -40.111,0 -16.838,-0.685 -26.611,-0.662 -40.111,0 -13.5,0.662 -27.585,-1.042 -47.331,0 -19.746,1.042 -32.082,0.067 -40.111,0 -8.029,-0.067 -15.096,0.11 -29.281,0 -14.186,-0.11 -17.47,-0.495 -32.892,0 -15.421,0.495 -34.975,0.352 -47.331,0 -12.356,-0.352 -29.914,-0.559 -40.111,0 -10.197,0.559 -31.699,-0.636 -43.721,0 0.56,-5.086 -0.475,-14.512 0,-18.6 0.475,-4.088 1.578,-8.029 0,-15.81 -1.578,-7.781 -0.494,-9.158 0,-15.81 0.494,-6.652 2.055,-10.032 0,-19.53 -2.055,-9.498 -0.215,-12.89 0,-23.25 z"
       fill="url(#fill1)"
       fill-rule="evenodd"
       id="path38344"
       style="fill:url(#fill1)" />
    <path
       d="m 318.5,305.5 c 22.918,0.405 32.512,-0.662 47.331,0 14.82,0.662 35.003,-0.165 47.331,0 12.329,0.165 24.105,0.484 40.111,0 16.007,-0.484 25.434,0.481 43.722,0 18.287,-0.48 28.552,0.464 36.501,0 7.948,-0.464 28.379,0.151 40.111,0 11.731,-0.151 26.996,-0.08 47.331,0 20.334,0.081 39.966,-0.05 58.562,0 2.033,8.943 -0.667,14.131 0,19.53 0.667,5.399 0.538,12.133 0,16.74 -0.538,4.608 1.302,11.585 0,17.67 -1.302,6.086 -1.389,12.536 0,18.6 1.39,6.064 -2.125,13.158 0,20.46 -10.121,-0.571 -35.304,0.769 -47.331,0 -12.027,-0.769 -29.872,-0.579 -40.111,0 -10.239,0.579 -28.615,-0.408 -40.111,0 -11.496,0.408 -29.105,-0.866 -40.111,0 -11.007,0.866 -24.405,-0.79 -40.112,0 -15.706,0.791 -25.95,-0.351 -36.501,0 -10.55,0.351 -29.79,-0.605 -43.721,0 -13.93,0.605 -42.347,0.492 -73.002,0 0.184,-6.699 -2.159,-15.471 0,-20.46 2.16,-4.989 0.139,-14.885 0,-19.53 -0.139,-4.645 -0.628,-15.384 0,-20.46 0.628,-5.076 1.012,-17.982 0,-32.55 z"
       stroke="#000000"
       stroke-width="1.33333"
       stroke-miterlimit="8"
       fill="none"
       fill-rule="evenodd"
       id="path38346" />
    <text
       font-family="Calibri, Calibri_MSFontService, sans-serif"
       font-weight="400"
       font-size="20px"
       transform="translate(447.726,358)"
       id="text38348">Klantcontact</text>
    <path
       d="m 318.5,298.5 c 9.633,-0.521 19.431,0.451 36.501,0 17.07,-0.451 15.62,0.41 29.281,0 13.661,-0.41 36.374,-0.082 47.331,0 10.958,0.082 24.374,-0.358 36.502,0 12.127,0.358 24.854,-0.189 36.501,0 11.646,0.19 24.341,0.452 47.331,0 22.989,-0.451 22.266,-0.173 32.891,0 10.624,0.173 37.596,0.056 47.331,0 9.735,-0.056 36.422,-0.22 47.331,0 -0.861,3.837 0.33,5.941 0,10 -0.33,4.059 0.896,7.957 0,10 -14.305,-0.147 -23.005,-0.599 -43.721,0 -20.716,0.599 -26.852,-0.893 -47.331,0 -20.479,0.893 -37.225,0.116 -47.331,0 -10.107,-0.115 -17.368,-0.048 -32.891,0 -15.524,0.048 -26.965,-0.834 -40.111,0 -13.147,0.834 -27.585,-1.049 -47.332,0 -19.746,1.05 -32.082,0.068 -40.111,0 -8.029,-0.067 -35.054,-1.149 -62.172,0 -0.506,-4.099 -0.22,-7.505 0,-9.6 0.22,-2.094 -0.802,-7.654 0,-10.4 z"
       fill="url(#fill2)"
       fill-rule="evenodd"
       id="path38350"
       style="fill:url(#fill2)" />
    <path
       d="m 318.5,298.5 c 17.544,-0.921 25.675,-0.215 47.331,0 21.656,0.215 28.404,-0.425 43.721,0 15.318,0.425 29.325,0.132 40.111,0 10.787,-0.132 29.38,-0.132 40.112,0 10.732,0.132 35.876,-0.749 47.331,0 11.454,0.749 27.948,0.427 43.721,0 15.773,-0.427 16.377,0.55 29.281,0 12.904,-0.55 47.732,-1.45 69.392,0 1.058,2.898 -0.382,7.53 0,10.4 0.382,2.87 0.201,7.228 0,9.6 -11.501,0.613 -22.384,-0.421 -32.891,0 -10.507,0.421 -31.69,-0.764 -47.331,0 -15.642,0.764 -22.295,-0.444 -36.501,0 -14.207,0.445 -26.034,-1.024 -47.331,0 -21.298,1.024 -16.549,-0.573 -32.891,0 -16.343,0.573 -20.042,0.359 -29.282,0 -9.239,-0.359 -20.671,0.548 -29.281,0 -8.61,-0.547 -34.455,-0.007 -43.721,0 -9.265,0.007 -42.69,0.877 -61.771,0 0.758,-3.725 0.222,-6.767 0,-10 -0.221,-3.233 0.396,-6.937 0,-10 z"
       stroke="#000000"
       stroke-width="1.33333"
       stroke-miterlimit="8"
       fill="none"
       fill-rule="evenodd"
       id="path38352" />
    <path
       d="m 518.5,467.5 c 4.296,-0.518 8.666,0.448 16.279,0 7.613,-0.447 6.966,0.407 13.059,0 6.092,-0.407 16.222,-0.081 21.109,0 4.886,0.081 10.87,-0.355 16.279,0 5.408,0.355 11.036,-0.312 16.279,0 5.242,0.312 10.855,0.448 21.108,0 10.253,-0.448 9.931,-0.172 14.669,0 4.739,0.172 16.768,0.056 21.109,0 4.342,-0.056 16.244,-0.218 21.109,0 0.06,7.172 0.798,11.092 0,18.6 -0.798,7.508 0.782,10.893 0,18.6 -0.781,7.707 0.091,11.46 0,19.53 -0.091,8.07 0.135,8.382 0,15.81 -0.135,7.428 -0.618,14.978 0,20.46 -5.796,-0.138 -10.379,0.685 -17.889,0 -7.509,-0.685 -11.868,-0.662 -17.889,0 -6.021,0.662 -12.302,-1.042 -21.109,0 -8.806,1.042 -14.308,0.067 -17.889,0 -3.58,-0.067 -6.732,0.11 -13.058,0 -6.327,-0.11 -7.791,-0.495 -14.669,0 -6.878,0.495 -15.599,0.352 -21.109,0 -5.511,-0.352 -13.341,-0.559 -17.889,0 -4.548,0.559 -14.137,-0.636 -19.499,0 0.25,-5.086 -0.212,-14.512 0,-18.6 0.212,-4.088 0.704,-8.029 0,-15.81 -0.704,-7.781 -0.22,-9.158 0,-15.81 0.22,-6.652 0.917,-10.032 0,-19.53 -0.917,-9.498 -0.096,-12.89 0,-23.25 z"
       fill="url(#fill3)"
       fill-rule="evenodd"
       id="path38354"
       style="fill:url(#fill3)" />
    <path
       d="m 518.5,467.5 c 10.221,0.405 14.5,-0.662 21.109,0 6.609,0.662 15.611,-0.165 21.109,0 5.498,0.165 10.75,0.484 17.889,0 7.138,-0.484 11.343,0.481 19.499,0 8.155,-0.48 12.734,0.464 16.279,0 3.545,-0.464 12.656,0.151 17.888,0 5.233,-0.151 12.04,-0.08 21.109,0 9.069,0.081 17.824,-0.05 26.118,0 0.907,8.943 -0.298,14.131 0,19.53 0.298,5.399 0.24,12.133 0,16.74 -0.24,4.608 0.581,11.585 0,17.67 -0.581,6.086 -0.62,12.536 0,18.6 0.62,6.064 -0.948,13.158 0,20.46 -4.514,-0.571 -15.745,0.769 -21.109,0 -5.364,-0.769 -13.322,-0.579 -17.889,0 -4.566,0.579 -12.762,-0.408 -17.889,0 -5.127,0.408 -12.98,-0.866 -17.889,0 -4.908,0.866 -10.884,-0.79 -17.888,0 -7.005,0.791 -11.574,-0.351 -16.279,0 -4.706,0.351 -13.286,-0.605 -19.499,0 -6.213,0.605 -18.887,0.492 -32.558,0 0.082,-6.699 -0.963,-15.471 0,-20.46 0.963,-4.989 0.062,-14.885 0,-19.53 -0.062,-4.645 -0.28,-15.384 0,-20.46 0.28,-5.076 0.451,-17.982 0,-32.55 z"
       stroke="#000000"
       stroke-width="1.33333"
       stroke-miterlimit="8"
       fill="none"
       fill-rule="evenodd"
       id="path38356" />
    <text
       font-family="Calibri, Calibri_MSFontService, sans-serif"
       font-weight="400"
       font-size="20px"
       transform="translate(534.736,521)"
       id="text38358">Onderwerpdeel</text>
    <path
       d="m 518.5,461.5 c 4.296,-0.521 8.666,0.451 16.279,0 7.613,-0.451 6.966,0.41 13.059,0 6.092,-0.41 16.222,-0.082 21.109,0 4.886,0.082 10.87,-0.358 16.279,0 5.408,0.358 11.084,-0.189 16.279,0 5.194,0.19 10.855,0.452 21.108,0 10.253,-0.451 9.931,-0.173 14.669,0 4.739,0.173 16.768,0.056 21.109,0 4.342,-0.056 16.244,-0.22 21.109,0 -0.384,3.837 0.147,5.941 0,10 -0.147,4.059 0.399,7.957 0,10 -6.38,-0.147 -10.26,-0.599 -19.499,0 -9.239,0.599 -11.975,-0.893 -21.109,0 -9.133,0.893 -16.601,0.116 -21.109,0 -4.507,-0.115 -7.745,-0.048 -14.668,0 -6.924,0.048 -12.026,-0.834 -17.889,0 -5.863,0.834 -12.303,-1.049 -21.109,0 -8.807,1.05 -14.308,0.068 -17.889,0 -3.581,-0.067 -15.634,-1.149 -27.728,0 -0.226,-4.099 -0.098,-7.505 0,-9.6 0.098,-2.094 -0.358,-7.654 0,-10.4 z"
       fill="url(#fill4)"
       fill-rule="evenodd"
       id="path38360"
       style="fill:url(#fill4)" />
    <path
       d="m 518.5,461.5 c 7.825,-0.921 11.451,-0.215 21.109,0 9.658,0.215 12.668,-0.425 19.499,0 6.831,0.425 13.078,0.132 17.889,0 4.81,-0.132 13.102,-0.132 17.889,0 4.786,0.132 16,-0.749 21.109,0 5.108,0.749 12.464,0.427 19.498,0 7.035,-0.427 7.304,0.55 13.059,0 5.755,-0.55 21.288,-1.45 30.948,0 0.472,2.898 -0.171,7.53 0,10.4 0.171,2.87 0.09,7.228 0,9.6 -5.129,0.613 -9.983,-0.421 -14.669,0 -4.686,0.421 -14.133,-0.764 -21.109,0 -6.976,0.764 -9.943,-0.444 -16.279,0 -6.335,0.445 -11.61,-1.024 -21.109,0 -9.498,1.024 -7.38,-0.573 -14.668,0 -7.289,0.573 -8.939,0.359 -13.059,0 -4.121,-0.359 -9.219,0.548 -13.059,0 -3.84,-0.547 -15.367,-0.007 -19.499,0 -4.132,0.007 -19.039,0.877 -27.549,0 0.338,-3.725 0.099,-6.767 0,-10 -0.099,-3.233 0.177,-6.937 0,-10 z"
       stroke="#000000"
       stroke-width="1.33333"
       stroke-miterlimit="8"
       fill="none"
       fill-rule="evenodd"
       id="path38362" />
    <path
       d="m 418.5,142.5 c 4.296,-0.518 8.666,0.448 16.279,0 7.613,-0.447 6.966,0.407 13.059,0 6.092,-0.407 16.222,-0.081 21.109,0 4.886,0.081 10.87,-0.355 16.279,0 5.408,0.355 11.036,-0.312 16.279,0 5.242,0.312 10.855,0.448 21.108,0 10.253,-0.448 9.931,-0.172 14.669,0 4.739,0.172 16.768,0.056 21.109,0 4.342,-0.056 16.244,-0.218 21.109,0 0.06,7.172 0.798,11.092 0,18.6 -0.798,7.508 0.782,10.893 0,18.6 -0.781,7.707 0.091,11.46 0,19.53 -0.091,8.07 0.135,8.382 0,15.81 -0.135,7.428 -0.618,14.978 0,20.46 -5.796,-0.138 -10.379,0.685 -17.889,0 -7.509,-0.685 -11.868,-0.662 -17.889,0 -6.021,0.662 -12.302,-1.042 -21.109,0 -8.806,1.042 -14.308,0.067 -17.889,0 -3.58,-0.067 -6.732,0.11 -13.058,0 -6.327,-0.11 -7.791,-0.495 -14.669,0 -6.878,0.495 -15.599,0.352 -21.109,0 -5.511,-0.352 -13.341,-0.559 -17.889,0 -4.548,0.559 -14.137,-0.636 -19.499,0 0.25,-5.086 -0.212,-14.512 0,-18.6 0.212,-4.088 0.704,-8.029 0,-15.81 -0.704,-7.781 -0.22,-9.158 0,-15.81 0.22,-6.652 0.917,-10.032 0,-19.53 -0.917,-9.498 -0.096,-12.89 0,-23.25 z"
       fill="url(#fill5)"
       fill-rule="evenodd"
       id="path38364"
       style="fill:url(#fill5)" />
    <path
       d="m 418.5,142.5 c 10.221,0.405 14.5,-0.662 21.109,0 6.609,0.662 15.611,-0.165 21.109,0 5.498,0.165 10.75,0.484 17.889,0 7.138,-0.484 11.343,0.481 19.499,0 8.155,-0.48 12.734,0.464 16.279,0 3.545,-0.464 12.656,0.151 17.888,0 5.233,-0.151 12.04,-0.08 21.109,0 9.069,0.081 17.824,-0.05 26.118,0 0.907,8.943 -0.298,14.131 0,19.53 0.298,5.399 0.24,12.133 0,16.74 -0.24,4.608 0.581,11.585 0,17.67 -0.581,6.086 -0.62,12.536 0,18.6 0.62,6.064 -0.948,13.158 0,20.46 -4.514,-0.571 -15.745,0.769 -21.109,0 -5.364,-0.769 -13.322,-0.579 -17.889,0 -4.566,0.579 -12.762,-0.408 -17.889,0 -5.127,0.408 -12.98,-0.866 -17.889,0 -4.908,0.866 -10.884,-0.79 -17.888,0 -7.005,0.791 -11.574,-0.351 -16.279,0 -4.706,0.351 -13.286,-0.605 -19.499,0 -6.213,0.605 -18.887,0.492 -32.558,0 0.082,-6.699 -0.963,-15.471 0,-20.46 0.963,-4.989 0.062,-14.885 0,-19.53 -0.062,-4.645 -0.28,-15.384 0,-20.46 0.28,-5.076 0.451,-17.982 0,-32.55 z"
       stroke="#000000"
       stroke-width="1.33333"
       stroke-miterlimit="8"
       fill="none"
       fill-rule="evenodd"
       id="path38366" />
    <text
       font-family="Calibri, Calibri_MSFontService, sans-serif"
       font-weight="400"
       font-size="20px"
       transform="translate(449.283,195)"
       id="text38368">Interne taak</text>
    <path
       d="m 418.5,135.5 c 4.296,-0.521 8.666,0.451 16.279,0 7.613,-0.451 6.966,0.41 13.059,0 6.092,-0.41 16.222,-0.082 21.109,0 4.886,0.082 10.87,-0.358 16.279,0 5.408,0.358 11.084,-0.189 16.278,0 5.195,0.19 10.856,0.452 21.109,0 10.253,-0.451 9.931,-0.173 14.669,0 4.739,0.173 16.768,0.056 21.109,0 4.342,-0.056 16.244,-0.22 21.109,0 -0.384,3.837 0.147,5.941 0,10 -0.147,4.059 0.399,7.957 0,10 -6.38,-0.147 -10.26,-0.599 -19.499,0 -9.239,0.599 -11.975,-0.893 -21.109,0 -9.133,0.893 -16.601,0.116 -21.109,0 -4.507,-0.115 -7.745,-0.048 -14.668,0 -6.924,0.048 -12.026,-0.834 -17.889,0 -5.863,0.834 -12.303,-1.05 -21.109,0 -8.807,1.05 -14.308,0.068 -17.889,0 -3.581,-0.067 -15.634,-1.149 -27.728,0 -0.226,-4.1 -0.098,-7.505 0,-9.6 0.098,-2.094 -0.358,-7.654 0,-10.4 z"
       fill="url(#fill6)"
       fill-rule="evenodd"
       id="path38370"
       style="fill:url(#fill6)" />
    <path
       d="m 418.5,135.5 c 7.825,-0.921 11.451,-0.215 21.109,0 9.658,0.215 12.668,-0.425 19.499,0 6.831,0.425 13.078,0.132 17.889,0 4.81,-0.132 13.102,-0.132 17.889,0 4.786,0.132 16,-0.749 21.109,0 5.108,0.749 12.464,0.427 19.498,0 7.035,-0.427 7.304,0.55 13.059,0 5.755,-0.55 21.288,-1.45 30.948,0 0.472,2.898 -0.171,7.53 0,10.4 0.171,2.87 0.09,7.228 0,9.6 -5.129,0.613 -9.983,-0.421 -14.669,0 -4.686,0.421 -14.133,-0.764 -21.109,0 -6.976,0.764 -9.943,-0.444 -16.279,0 -6.335,0.445 -11.61,-1.024 -21.109,0 -9.498,1.024 -7.38,-0.573 -14.668,0 -7.289,0.573 -8.939,0.359 -13.059,0 -4.121,-0.359 -9.219,0.548 -13.059,0 -3.84,-0.548 -15.367,-0.007 -19.499,0 -4.132,0.007 -19.039,0.877 -27.549,0 0.338,-3.725 0.099,-6.767 0,-10 -0.099,-3.233 0.177,-6.937 0,-10 z"
       stroke="#000000"
       stroke-width="1.33333"
       stroke-miterlimit="8"
       fill="none"
       fill-rule="evenodd"
       id="path38372" />
    <path
       d="m 499,235 v 61.177 h -2 V 235 Z m 6.541,49.663 -7.541,13.573 -7.541,-13.573 c -0.268,-0.483 -0.094,-1.092 0.389,-1.36 0.483,-0.268 1.091,-0.094 1.36,0.388 l 6.666,12 h -1.748 l 6.667,-12 c 0.268,-0.482 0.877,-0.656 1.359,-0.388 0.483,0.268 0.657,0.877 0.389,1.36 z"
       id="path38374" />
    <path
       d="m 600,398 v 61.177 h -2 V 398 Z m 6.541,49.663 -7.541,13.573 -7.541,-13.573 c -0.268,-0.483 -0.094,-1.092 0.389,-1.36 0.483,-0.268 1.091,-0.094 1.36,0.388 l 6.666,12 h -1.748 l 6.667,-12 c 0.268,-0.482 0.877,-0.656 1.359,-0.388 0.483,0.268 0.657,0.877 0.389,1.36 z"
       id="path38376" />
    <text
       font-family="Calibri, Calibri_MSFontService, sans-serif"
       font-style="italic"
       font-weight="400"
       font-size="19px"
       transform="translate(519.408,260)"
       id="text38378">ontstond naar</text>
    <text
       font-family="Calibri, Calibri_MSFontService, sans-serif"
       font-style="italic"
       font-weight="400"
       font-size="19px"
       transform="translate(517.021,283)"
       id="text38380">aanleiding van</text>
    <text
       font-family="Calibri, Calibri_MSFontService, sans-serif"
       font-style="italic"
       font-weight="400"
       font-size="19px"
       transform="translate(606.128,433)"
       id="text38382">ging over</text>
    <path
       d="m 679.326,512.462 h 80.151 l -1,1 V 188 l 1,1 H 581.06 v -2 H 760.477 V 514.462 H 679.326 Z M 592.574,195.541 579.001,188 l 13.573,-7.541 c 0.483,-0.268 1.092,-0.094 1.36,0.389 0.268,0.483 0.094,1.091 -0.388,1.36 l -12,6.666 v -1.748 l 12,6.667 c 0.482,0.268 0.656,0.877 0.388,1.359 -0.268,0.483 -0.877,0.657 -1.36,0.389 z"
       id="path38384" />
    <text
       font-family="Calibri, Calibri_MSFontService, sans-serif"
       font-style="italic"
       font-weight="400"
       font-size="19px"
       transform="translate(769.705,357)"
       id="text38386">was</text>
  </g>
</svg>
